<mxfile host="app.diagrams.net" modified="2023-06-22T09:52:34.473Z" agent="Mozilla/5.0 (Windows NT 10.0; Win64; x64) AppleWebKit/537.36 (KHTML, like Gecko) Chrome/114.0.0.0 Safari/537.36" etag="28j2zB1809RRyOaptW6g" version="21.4.0" type="github">
  <diagram name="페이지-1" id="N9q6ur_0MqGn-Tztn_uz">
    <mxGraphModel dx="1674" dy="884" grid="1" gridSize="10" guides="1" tooltips="1" connect="1" arrows="1" fold="1" page="1" pageScale="1" pageWidth="827" pageHeight="1169" math="0" shadow="0">
      <root>
        <mxCell id="0" />
        <mxCell id="1" parent="0" />
        <mxCell id="9GBmTUvKg4JU0pZOdKfp-16" style="edgeStyle=orthogonalEdgeStyle;rounded=0;orthogonalLoop=1;jettySize=auto;html=1;exitX=0.5;exitY=1;exitDx=0;exitDy=0;entryX=0.5;entryY=0;entryDx=0;entryDy=0;" edge="1" parent="1" source="9GBmTUvKg4JU0pZOdKfp-1" target="9GBmTUvKg4JU0pZOdKfp-5">
          <mxGeometry relative="1" as="geometry" />
        </mxCell>
        <mxCell id="9GBmTUvKg4JU0pZOdKfp-1" value="main" style="ellipse;whiteSpace=wrap;html=1;" vertex="1" parent="1">
          <mxGeometry x="80" y="140" width="90" height="50" as="geometry" />
        </mxCell>
        <mxCell id="9GBmTUvKg4JU0pZOdKfp-81" style="edgeStyle=orthogonalEdgeStyle;rounded=0;orthogonalLoop=1;jettySize=auto;html=1;exitX=0.5;exitY=1;exitDx=0;exitDy=0;entryX=0.5;entryY=0;entryDx=0;entryDy=0;entryPerimeter=0;" edge="1" parent="1" source="9GBmTUvKg4JU0pZOdKfp-2" target="9GBmTUvKg4JU0pZOdKfp-30">
          <mxGeometry relative="1" as="geometry" />
        </mxCell>
        <mxCell id="9GBmTUvKg4JU0pZOdKfp-2" value="void insertion(int* array, int n)" style="ellipse;whiteSpace=wrap;html=1;" vertex="1" parent="1">
          <mxGeometry x="420" y="140" width="190" height="50" as="geometry" />
        </mxCell>
        <mxCell id="9GBmTUvKg4JU0pZOdKfp-17" style="edgeStyle=orthogonalEdgeStyle;rounded=0;orthogonalLoop=1;jettySize=auto;html=1;exitX=0.5;exitY=1;exitDx=0;exitDy=0;entryX=0.5;entryY=0;entryDx=0;entryDy=0;" edge="1" parent="1" source="9GBmTUvKg4JU0pZOdKfp-5" target="9GBmTUvKg4JU0pZOdKfp-6">
          <mxGeometry relative="1" as="geometry" />
        </mxCell>
        <mxCell id="9GBmTUvKg4JU0pZOdKfp-5" value="int number;" style="shape=parallelogram;perimeter=parallelogramPerimeter;whiteSpace=wrap;html=1;fixedSize=1;" vertex="1" parent="1">
          <mxGeometry x="77.5" y="210" width="95" height="50" as="geometry" />
        </mxCell>
        <mxCell id="9GBmTUvKg4JU0pZOdKfp-6" value="cout &amp;lt;&amp;lt; &quot;요소 개수: &quot;;&lt;br&gt;cin &amp;gt;&amp;gt; number;" style="shape=document;whiteSpace=wrap;html=1;boundedLbl=1;" vertex="1" parent="1">
          <mxGeometry x="57.5" y="280" width="135" height="60" as="geometry" />
        </mxCell>
        <mxCell id="9GBmTUvKg4JU0pZOdKfp-18" style="edgeStyle=orthogonalEdgeStyle;rounded=0;orthogonalLoop=1;jettySize=auto;html=1;exitX=0.492;exitY=0.85;exitDx=0;exitDy=0;entryX=0.5;entryY=0;entryDx=0;entryDy=0;exitPerimeter=0;" edge="1" parent="1" source="9GBmTUvKg4JU0pZOdKfp-6" target="9GBmTUvKg4JU0pZOdKfp-7">
          <mxGeometry relative="1" as="geometry" />
        </mxCell>
        <mxCell id="9GBmTUvKg4JU0pZOdKfp-19" style="edgeStyle=orthogonalEdgeStyle;rounded=0;orthogonalLoop=1;jettySize=auto;html=1;exitX=0.5;exitY=1;exitDx=0;exitDy=0;entryX=0.5;entryY=0;entryDx=0;entryDy=0;entryPerimeter=0;" edge="1" parent="1" source="9GBmTUvKg4JU0pZOdKfp-7" target="9GBmTUvKg4JU0pZOdKfp-9">
          <mxGeometry relative="1" as="geometry" />
        </mxCell>
        <mxCell id="9GBmTUvKg4JU0pZOdKfp-7" value="int* array = new int[number];" style="shape=parallelogram;perimeter=parallelogramPerimeter;whiteSpace=wrap;html=1;fixedSize=1;" vertex="1" parent="1">
          <mxGeometry x="33.75" y="370" width="182.5" height="60" as="geometry" />
        </mxCell>
        <mxCell id="9GBmTUvKg4JU0pZOdKfp-20" style="edgeStyle=orthogonalEdgeStyle;rounded=0;orthogonalLoop=1;jettySize=auto;html=1;exitX=0.5;exitY=1;exitDx=0;exitDy=0;exitPerimeter=0;entryX=0.5;entryY=0;entryDx=0;entryDy=0;" edge="1" parent="1" source="9GBmTUvKg4JU0pZOdKfp-9" target="9GBmTUvKg4JU0pZOdKfp-10">
          <mxGeometry relative="1" as="geometry" />
        </mxCell>
        <mxCell id="9GBmTUvKg4JU0pZOdKfp-9" value="int i: 0, 1, number" style="strokeWidth=2;html=1;shape=mxgraph.flowchart.loop_limit;whiteSpace=wrap;" vertex="1" parent="1">
          <mxGeometry x="67.5" y="470" width="115" height="40" as="geometry" />
        </mxCell>
        <mxCell id="9GBmTUvKg4JU0pZOdKfp-10" value="cout &lt;&lt; &quot;array[&quot; &lt;&lt; i &lt;&lt; &quot;] = &quot;;&#xa;        cin &gt;&gt; array[i];" style="shape=document;whiteSpace=wrap;html=1;boundedLbl=1;" vertex="1" parent="1">
          <mxGeometry x="42.5" y="530" width="165" height="80" as="geometry" />
        </mxCell>
        <mxCell id="9GBmTUvKg4JU0pZOdKfp-21" style="edgeStyle=orthogonalEdgeStyle;rounded=0;orthogonalLoop=1;jettySize=auto;html=1;exitX=0.487;exitY=0.845;exitDx=0;exitDy=0;exitPerimeter=0;entryX=0.5;entryY=1;entryDx=0;entryDy=0;entryPerimeter=0;" edge="1" parent="1" source="9GBmTUvKg4JU0pZOdKfp-10" target="9GBmTUvKg4JU0pZOdKfp-13">
          <mxGeometry relative="1" as="geometry" />
        </mxCell>
        <mxCell id="9GBmTUvKg4JU0pZOdKfp-23" style="edgeStyle=orthogonalEdgeStyle;rounded=0;orthogonalLoop=1;jettySize=auto;html=1;exitX=0.5;exitY=0;exitDx=0;exitDy=0;exitPerimeter=0;entryX=0.475;entryY=-0.014;entryDx=0;entryDy=0;entryPerimeter=0;" edge="1" parent="1" source="9GBmTUvKg4JU0pZOdKfp-13" target="9GBmTUvKg4JU0pZOdKfp-14">
          <mxGeometry relative="1" as="geometry" />
        </mxCell>
        <mxCell id="9GBmTUvKg4JU0pZOdKfp-13" value="int i: 0, 1, number" style="strokeWidth=2;html=1;shape=mxgraph.flowchart.loop_limit;whiteSpace=wrap;rotation=-180;" vertex="1" parent="1">
          <mxGeometry x="65" y="630" width="115" height="40" as="geometry" />
        </mxCell>
        <mxCell id="9GBmTUvKg4JU0pZOdKfp-14" value="cout &lt;&lt; endl &lt;&lt; &quot;정렬 과정: &quot; &lt;&lt; endl;" style="shape=document;whiteSpace=wrap;html=1;boundedLbl=1;" vertex="1" parent="1">
          <mxGeometry x="65" y="710" width="120" height="70" as="geometry" />
        </mxCell>
        <mxCell id="9GBmTUvKg4JU0pZOdKfp-24" style="edgeStyle=orthogonalEdgeStyle;rounded=0;orthogonalLoop=1;jettySize=auto;html=1;exitX=0.474;exitY=0.844;exitDx=0;exitDy=0;entryX=0.5;entryY=0;entryDx=0;entryDy=0;exitPerimeter=0;" edge="1" parent="1" source="9GBmTUvKg4JU0pZOdKfp-14" target="9GBmTUvKg4JU0pZOdKfp-15">
          <mxGeometry relative="1" as="geometry">
            <mxPoint x="121.42857142857139" y="790" as="targetPoint" />
          </mxGeometry>
        </mxCell>
        <mxCell id="9GBmTUvKg4JU0pZOdKfp-28" style="edgeStyle=orthogonalEdgeStyle;rounded=0;orthogonalLoop=1;jettySize=auto;html=1;exitX=0.5;exitY=1;exitDx=0;exitDy=0;entryX=0.5;entryY=0;entryDx=0;entryDy=0;" edge="1" parent="1" source="9GBmTUvKg4JU0pZOdKfp-15" target="9GBmTUvKg4JU0pZOdKfp-26">
          <mxGeometry relative="1" as="geometry" />
        </mxCell>
        <mxCell id="9GBmTUvKg4JU0pZOdKfp-15" value="insertion(array, number);" style="shape=process;whiteSpace=wrap;html=1;backgroundOutline=1;" vertex="1" parent="1">
          <mxGeometry x="33.75" y="820" width="175" height="60" as="geometry" />
        </mxCell>
        <mxCell id="9GBmTUvKg4JU0pZOdKfp-29" style="edgeStyle=orthogonalEdgeStyle;rounded=0;orthogonalLoop=1;jettySize=auto;html=1;exitX=0.5;exitY=1;exitDx=0;exitDy=0;entryX=0.5;entryY=0;entryDx=0;entryDy=0;" edge="1" parent="1" source="9GBmTUvKg4JU0pZOdKfp-26" target="9GBmTUvKg4JU0pZOdKfp-27">
          <mxGeometry relative="1" as="geometry" />
        </mxCell>
        <mxCell id="9GBmTUvKg4JU0pZOdKfp-26" value="delete[] array;" style="rounded=0;whiteSpace=wrap;html=1;" vertex="1" parent="1">
          <mxGeometry x="76.25" y="900" width="90" height="40" as="geometry" />
        </mxCell>
        <mxCell id="9GBmTUvKg4JU0pZOdKfp-27" value="main" style="ellipse;whiteSpace=wrap;html=1;" vertex="1" parent="1">
          <mxGeometry x="76.25" y="980" width="90" height="50" as="geometry" />
        </mxCell>
        <mxCell id="9GBmTUvKg4JU0pZOdKfp-80" style="edgeStyle=orthogonalEdgeStyle;rounded=0;orthogonalLoop=1;jettySize=auto;html=1;exitX=0.5;exitY=1;exitDx=0;exitDy=0;exitPerimeter=0;entryX=0.5;entryY=0;entryDx=0;entryDy=0;" edge="1" parent="1" source="9GBmTUvKg4JU0pZOdKfp-30" target="9GBmTUvKg4JU0pZOdKfp-32">
          <mxGeometry relative="1" as="geometry" />
        </mxCell>
        <mxCell id="9GBmTUvKg4JU0pZOdKfp-30" value="int i:0, 1, n" style="strokeWidth=2;html=1;shape=mxgraph.flowchart.loop_limit;whiteSpace=wrap;" vertex="1" parent="1">
          <mxGeometry x="465" y="220" width="100" height="40" as="geometry" />
        </mxCell>
        <mxCell id="9GBmTUvKg4JU0pZOdKfp-90" style="edgeStyle=orthogonalEdgeStyle;rounded=0;orthogonalLoop=1;jettySize=auto;html=1;exitX=0.5;exitY=0;exitDx=0;exitDy=0;exitPerimeter=0;entryX=0.5;entryY=0;entryDx=0;entryDy=0;" edge="1" parent="1" source="9GBmTUvKg4JU0pZOdKfp-31" target="9GBmTUvKg4JU0pZOdKfp-89">
          <mxGeometry relative="1" as="geometry" />
        </mxCell>
        <mxCell id="9GBmTUvKg4JU0pZOdKfp-31" value="int i:0, 1, n" style="strokeWidth=2;html=1;shape=mxgraph.flowchart.loop_limit;whiteSpace=wrap;rotation=-180;" vertex="1" parent="1">
          <mxGeometry x="465" y="1690" width="100" height="40" as="geometry" />
        </mxCell>
        <mxCell id="9GBmTUvKg4JU0pZOdKfp-79" style="edgeStyle=orthogonalEdgeStyle;rounded=0;orthogonalLoop=1;jettySize=auto;html=1;exitX=0.5;exitY=1;exitDx=0;exitDy=0;entryX=0.5;entryY=0;entryDx=0;entryDy=0;entryPerimeter=0;" edge="1" parent="1" source="9GBmTUvKg4JU0pZOdKfp-32" target="9GBmTUvKg4JU0pZOdKfp-33">
          <mxGeometry relative="1" as="geometry">
            <Array as="points">
              <mxPoint x="513" y="330" />
              <mxPoint x="513" y="350" />
              <mxPoint x="513" y="350" />
            </Array>
          </mxGeometry>
        </mxCell>
        <mxCell id="9GBmTUvKg4JU0pZOdKfp-32" value="int count = 0;&lt;br&gt;int end = i;" style="shape=parallelogram;perimeter=parallelogramPerimeter;whiteSpace=wrap;html=1;fixedSize=1;" vertex="1" parent="1">
          <mxGeometry x="457.5" y="290" width="115" height="40" as="geometry" />
        </mxCell>
        <mxCell id="9GBmTUvKg4JU0pZOdKfp-39" style="edgeStyle=orthogonalEdgeStyle;rounded=0;orthogonalLoop=1;jettySize=auto;html=1;exitX=0.5;exitY=1;exitDx=0;exitDy=0;exitPerimeter=0;" edge="1" parent="1" source="9GBmTUvKg4JU0pZOdKfp-33" target="9GBmTUvKg4JU0pZOdKfp-34">
          <mxGeometry relative="1" as="geometry" />
        </mxCell>
        <mxCell id="9GBmTUvKg4JU0pZOdKfp-33" value="int j:i-1, -1, 0" style="strokeWidth=2;html=1;shape=mxgraph.flowchart.loop_limit;whiteSpace=wrap;" vertex="1" parent="1">
          <mxGeometry x="465" y="370" width="95" height="50" as="geometry" />
        </mxCell>
        <mxCell id="9GBmTUvKg4JU0pZOdKfp-44" value="Y" style="edgeStyle=orthogonalEdgeStyle;rounded=0;orthogonalLoop=1;jettySize=auto;html=1;exitX=1;exitY=0.5;exitDx=0;exitDy=0;entryX=0;entryY=0.5;entryDx=0;entryDy=0;" edge="1" parent="1" source="9GBmTUvKg4JU0pZOdKfp-34" target="9GBmTUvKg4JU0pZOdKfp-35">
          <mxGeometry relative="1" as="geometry" />
        </mxCell>
        <mxCell id="9GBmTUvKg4JU0pZOdKfp-48" value="N" style="edgeStyle=orthogonalEdgeStyle;rounded=0;orthogonalLoop=1;jettySize=auto;html=1;exitX=0.5;exitY=1;exitDx=0;exitDy=0;entryX=0.5;entryY=1;entryDx=0;entryDy=0;entryPerimeter=0;" edge="1" parent="1" source="9GBmTUvKg4JU0pZOdKfp-34" target="9GBmTUvKg4JU0pZOdKfp-37">
          <mxGeometry relative="1" as="geometry" />
        </mxCell>
        <mxCell id="9GBmTUvKg4JU0pZOdKfp-34" value="array[j] &amp;gt; array[i]" style="rhombus;whiteSpace=wrap;html=1;" vertex="1" parent="1">
          <mxGeometry x="456.25" y="460" width="112.5" height="60" as="geometry" />
        </mxCell>
        <mxCell id="9GBmTUvKg4JU0pZOdKfp-45" style="edgeStyle=orthogonalEdgeStyle;rounded=0;orthogonalLoop=1;jettySize=auto;html=1;exitX=0.5;exitY=0;exitDx=0;exitDy=0;" edge="1" parent="1" source="9GBmTUvKg4JU0pZOdKfp-35">
          <mxGeometry relative="1" as="geometry">
            <mxPoint x="510" y="440" as="targetPoint" />
            <Array as="points">
              <mxPoint x="668" y="440" />
            </Array>
          </mxGeometry>
        </mxCell>
        <mxCell id="9GBmTUvKg4JU0pZOdKfp-35" value="count++;" style="rounded=0;whiteSpace=wrap;html=1;" vertex="1" parent="1">
          <mxGeometry x="630" y="475" width="75" height="30" as="geometry" />
        </mxCell>
        <mxCell id="9GBmTUvKg4JU0pZOdKfp-78" style="edgeStyle=orthogonalEdgeStyle;rounded=0;orthogonalLoop=1;jettySize=auto;html=1;exitX=0.5;exitY=0;exitDx=0;exitDy=0;exitPerimeter=0;entryX=0.5;entryY=0;entryDx=0;entryDy=0;entryPerimeter=0;" edge="1" parent="1" source="9GBmTUvKg4JU0pZOdKfp-37" target="9GBmTUvKg4JU0pZOdKfp-49">
          <mxGeometry relative="1" as="geometry" />
        </mxCell>
        <mxCell id="9GBmTUvKg4JU0pZOdKfp-37" value="int j:i-1, -1, 0" style="strokeWidth=2;html=1;shape=mxgraph.flowchart.loop_limit;whiteSpace=wrap;rotation=-180;" vertex="1" parent="1">
          <mxGeometry x="465" y="560" width="95" height="50" as="geometry" />
        </mxCell>
        <mxCell id="9GBmTUvKg4JU0pZOdKfp-68" style="edgeStyle=orthogonalEdgeStyle;rounded=0;orthogonalLoop=1;jettySize=auto;html=1;exitX=0.5;exitY=1;exitDx=0;exitDy=0;exitPerimeter=0;entryX=0.5;entryY=0;entryDx=0;entryDy=0;" edge="1" parent="1" source="9GBmTUvKg4JU0pZOdKfp-49" target="9GBmTUvKg4JU0pZOdKfp-50">
          <mxGeometry relative="1" as="geometry" />
        </mxCell>
        <mxCell id="9GBmTUvKg4JU0pZOdKfp-49" value="int j:0, 1, end" style="strokeWidth=2;html=1;shape=mxgraph.flowchart.loop_limit;whiteSpace=wrap;" vertex="1" parent="1">
          <mxGeometry x="462.5" y="670" width="100" height="40" as="geometry" />
        </mxCell>
        <mxCell id="9GBmTUvKg4JU0pZOdKfp-67" value="Y" style="edgeStyle=orthogonalEdgeStyle;rounded=0;orthogonalLoop=1;jettySize=auto;html=1;exitX=1;exitY=0.5;exitDx=0;exitDy=0;" edge="1" parent="1" source="9GBmTUvKg4JU0pZOdKfp-50">
          <mxGeometry relative="1" as="geometry">
            <mxPoint x="610" y="770.3103448275863" as="targetPoint" />
          </mxGeometry>
        </mxCell>
        <mxCell id="9GBmTUvKg4JU0pZOdKfp-70" value="N" style="edgeStyle=orthogonalEdgeStyle;rounded=0;orthogonalLoop=1;jettySize=auto;html=1;exitX=0.5;exitY=1;exitDx=0;exitDy=0;" edge="1" parent="1" source="9GBmTUvKg4JU0pZOdKfp-50" target="9GBmTUvKg4JU0pZOdKfp-52">
          <mxGeometry relative="1" as="geometry" />
        </mxCell>
        <mxCell id="9GBmTUvKg4JU0pZOdKfp-50" value="!count &amp;&amp; i != 0" style="rhombus;whiteSpace=wrap;html=1;" vertex="1" parent="1">
          <mxGeometry x="462.5" y="740" width="105" height="60" as="geometry" />
        </mxCell>
        <mxCell id="9GBmTUvKg4JU0pZOdKfp-54" value="Y" style="edgeStyle=orthogonalEdgeStyle;rounded=0;orthogonalLoop=1;jettySize=auto;html=1;exitX=1;exitY=0.5;exitDx=0;exitDy=0;entryX=0;entryY=0.5;entryDx=0;entryDy=0;" edge="1" parent="1" source="9GBmTUvKg4JU0pZOdKfp-51" target="9GBmTUvKg4JU0pZOdKfp-53">
          <mxGeometry relative="1" as="geometry" />
        </mxCell>
        <mxCell id="9GBmTUvKg4JU0pZOdKfp-56" value="N" style="edgeStyle=orthogonalEdgeStyle;rounded=0;orthogonalLoop=1;jettySize=auto;html=1;exitX=0.5;exitY=1;exitDx=0;exitDy=0;entryX=0.5;entryY=0;entryDx=0;entryDy=0;" edge="1" parent="1" source="9GBmTUvKg4JU0pZOdKfp-51" target="9GBmTUvKg4JU0pZOdKfp-55">
          <mxGeometry relative="1" as="geometry" />
        </mxCell>
        <mxCell id="9GBmTUvKg4JU0pZOdKfp-51" value="j == end" style="rhombus;whiteSpace=wrap;html=1;" vertex="1" parent="1">
          <mxGeometry x="610" y="740" width="80" height="60" as="geometry" />
        </mxCell>
        <mxCell id="9GBmTUvKg4JU0pZOdKfp-71" style="edgeStyle=orthogonalEdgeStyle;rounded=0;orthogonalLoop=1;jettySize=auto;html=1;exitX=0.528;exitY=0.87;exitDx=0;exitDy=0;exitPerimeter=0;entryX=0.5;entryY=1;entryDx=0;entryDy=0;entryPerimeter=0;" edge="1" parent="1" source="9GBmTUvKg4JU0pZOdKfp-65" target="9GBmTUvKg4JU0pZOdKfp-52">
          <mxGeometry relative="1" as="geometry">
            <Array as="points">
              <mxPoint x="654" y="1110" />
              <mxPoint x="515" y="1110" />
            </Array>
          </mxGeometry>
        </mxCell>
        <mxCell id="9GBmTUvKg4JU0pZOdKfp-77" style="edgeStyle=orthogonalEdgeStyle;rounded=0;orthogonalLoop=1;jettySize=auto;html=1;exitX=0.5;exitY=0;exitDx=0;exitDy=0;exitPerimeter=0;entryX=0.5;entryY=0;entryDx=0;entryDy=0;entryPerimeter=0;" edge="1" parent="1" source="9GBmTUvKg4JU0pZOdKfp-52" target="9GBmTUvKg4JU0pZOdKfp-72">
          <mxGeometry relative="1" as="geometry" />
        </mxCell>
        <mxCell id="9GBmTUvKg4JU0pZOdKfp-52" value="int j:0, 1, end" style="strokeWidth=2;html=1;shape=mxgraph.flowchart.loop_limit;whiteSpace=wrap;rotation=-180;" vertex="1" parent="1">
          <mxGeometry x="465" y="1150" width="100" height="40" as="geometry" />
        </mxCell>
        <mxCell id="9GBmTUvKg4JU0pZOdKfp-53" value="cout &lt;&lt; &quot;-+&quot;;" style="shape=document;whiteSpace=wrap;html=1;boundedLbl=1;" vertex="1" parent="1">
          <mxGeometry x="746.5" y="750" width="80" height="40" as="geometry" />
        </mxCell>
        <mxCell id="9GBmTUvKg4JU0pZOdKfp-60" value="Y" style="edgeStyle=orthogonalEdgeStyle;rounded=0;orthogonalLoop=1;jettySize=auto;html=1;exitX=1;exitY=0.5;exitDx=0;exitDy=0;entryX=0;entryY=0.5;entryDx=0;entryDy=0;" edge="1" parent="1" source="9GBmTUvKg4JU0pZOdKfp-55" target="9GBmTUvKg4JU0pZOdKfp-59">
          <mxGeometry relative="1" as="geometry" />
        </mxCell>
        <mxCell id="9GBmTUvKg4JU0pZOdKfp-62" value="N" style="edgeStyle=orthogonalEdgeStyle;rounded=0;orthogonalLoop=1;jettySize=auto;html=1;exitX=0.5;exitY=1;exitDx=0;exitDy=0;entryX=0.5;entryY=0;entryDx=0;entryDy=0;" edge="1" parent="1" source="9GBmTUvKg4JU0pZOdKfp-55" target="9GBmTUvKg4JU0pZOdKfp-61">
          <mxGeometry relative="1" as="geometry" />
        </mxCell>
        <mxCell id="9GBmTUvKg4JU0pZOdKfp-55" value="j == end - count" style="rhombus;whiteSpace=wrap;html=1;" vertex="1" parent="1">
          <mxGeometry x="599" y="860" width="105" height="60" as="geometry" />
        </mxCell>
        <mxCell id="9GBmTUvKg4JU0pZOdKfp-59" value="cout &lt;&lt; &quot;^-&quot;;" style="shape=document;whiteSpace=wrap;html=1;boundedLbl=1;" vertex="1" parent="1">
          <mxGeometry x="746.5" y="870" width="80" height="40" as="geometry" />
        </mxCell>
        <mxCell id="9GBmTUvKg4JU0pZOdKfp-64" value="Y" style="edgeStyle=orthogonalEdgeStyle;rounded=0;orthogonalLoop=1;jettySize=auto;html=1;exitX=1;exitY=0.5;exitDx=0;exitDy=0;entryX=0;entryY=0.5;entryDx=0;entryDy=0;" edge="1" parent="1" source="9GBmTUvKg4JU0pZOdKfp-61" target="9GBmTUvKg4JU0pZOdKfp-63">
          <mxGeometry relative="1" as="geometry" />
        </mxCell>
        <mxCell id="9GBmTUvKg4JU0pZOdKfp-69" value="N" style="edgeStyle=orthogonalEdgeStyle;rounded=0;orthogonalLoop=1;jettySize=auto;html=1;exitX=0.5;exitY=1;exitDx=0;exitDy=0;entryX=0.5;entryY=0;entryDx=0;entryDy=0;" edge="1" parent="1" source="9GBmTUvKg4JU0pZOdKfp-61" target="9GBmTUvKg4JU0pZOdKfp-65">
          <mxGeometry relative="1" as="geometry" />
        </mxCell>
        <mxCell id="9GBmTUvKg4JU0pZOdKfp-61" value="j &gt; i - count - 1" style="rhombus;whiteSpace=wrap;html=1;" vertex="1" parent="1">
          <mxGeometry x="594" y="960" width="115" height="50" as="geometry" />
        </mxCell>
        <mxCell id="9GBmTUvKg4JU0pZOdKfp-63" value="cout &lt;&lt; &quot;--&quot;;" style="shape=document;whiteSpace=wrap;html=1;boundedLbl=1;" vertex="1" parent="1">
          <mxGeometry x="756.5" y="965" width="70" height="40" as="geometry" />
        </mxCell>
        <mxCell id="9GBmTUvKg4JU0pZOdKfp-65" value="cout &lt;&lt; &quot;  &quot;;" style="shape=document;whiteSpace=wrap;html=1;boundedLbl=1;" vertex="1" parent="1">
          <mxGeometry x="616" y="1050" width="71" height="40" as="geometry" />
        </mxCell>
        <mxCell id="9GBmTUvKg4JU0pZOdKfp-75" style="edgeStyle=orthogonalEdgeStyle;rounded=0;orthogonalLoop=1;jettySize=auto;html=1;exitX=0.5;exitY=1;exitDx=0;exitDy=0;exitPerimeter=0;entryX=0.5;entryY=0;entryDx=0;entryDy=0;" edge="1" parent="1" source="9GBmTUvKg4JU0pZOdKfp-72" target="9GBmTUvKg4JU0pZOdKfp-73">
          <mxGeometry relative="1" as="geometry" />
        </mxCell>
        <mxCell id="9GBmTUvKg4JU0pZOdKfp-72" value="int j:0, 1, count" style="strokeWidth=2;html=1;shape=mxgraph.flowchart.loop_limit;whiteSpace=wrap;" vertex="1" parent="1">
          <mxGeometry x="467.5" y="1240" width="95" height="40" as="geometry" />
        </mxCell>
        <mxCell id="9GBmTUvKg4JU0pZOdKfp-76" style="edgeStyle=orthogonalEdgeStyle;rounded=0;orthogonalLoop=1;jettySize=auto;html=1;exitX=0.5;exitY=1;exitDx=0;exitDy=0;entryX=0.5;entryY=1;entryDx=0;entryDy=0;entryPerimeter=0;" edge="1" parent="1" source="9GBmTUvKg4JU0pZOdKfp-73" target="9GBmTUvKg4JU0pZOdKfp-74">
          <mxGeometry relative="1" as="geometry" />
        </mxCell>
        <mxCell id="9GBmTUvKg4JU0pZOdKfp-73" value="int temp = array[i - j];&lt;br&gt;array[i - j] = array[i - 1 - j];&lt;br&gt;array[i - 1 - j] = temp;" style="rounded=0;whiteSpace=wrap;html=1;" vertex="1" parent="1">
          <mxGeometry x="437.5" y="1310" width="155" height="60" as="geometry" />
        </mxCell>
        <mxCell id="9GBmTUvKg4JU0pZOdKfp-87" style="edgeStyle=orthogonalEdgeStyle;rounded=0;orthogonalLoop=1;jettySize=auto;html=1;exitX=0.5;exitY=0;exitDx=0;exitDy=0;exitPerimeter=0;entryX=0.543;entryY=0.054;entryDx=0;entryDy=0;entryPerimeter=0;" edge="1" parent="1" source="9GBmTUvKg4JU0pZOdKfp-74" target="9GBmTUvKg4JU0pZOdKfp-82">
          <mxGeometry relative="1" as="geometry" />
        </mxCell>
        <mxCell id="9GBmTUvKg4JU0pZOdKfp-74" value="int j:0, 1, count" style="strokeWidth=2;html=1;shape=mxgraph.flowchart.loop_limit;whiteSpace=wrap;rotation=-180;" vertex="1" parent="1">
          <mxGeometry x="467.5" y="1390" width="95" height="40" as="geometry" />
        </mxCell>
        <mxCell id="9GBmTUvKg4JU0pZOdKfp-85" style="edgeStyle=orthogonalEdgeStyle;rounded=0;orthogonalLoop=1;jettySize=auto;html=1;exitX=0.5;exitY=1;exitDx=0;exitDy=0;exitPerimeter=0;entryX=0.5;entryY=0;entryDx=0;entryDy=0;" edge="1" parent="1" source="9GBmTUvKg4JU0pZOdKfp-82" target="9GBmTUvKg4JU0pZOdKfp-84">
          <mxGeometry relative="1" as="geometry" />
        </mxCell>
        <mxCell id="9GBmTUvKg4JU0pZOdKfp-82" value="int j:0, 1, n" style="strokeWidth=2;html=1;shape=mxgraph.flowchart.loop_limit;whiteSpace=wrap;" vertex="1" parent="1">
          <mxGeometry x="462.5" y="1490" width="95" height="40" as="geometry" />
        </mxCell>
        <mxCell id="9GBmTUvKg4JU0pZOdKfp-86" style="edgeStyle=orthogonalEdgeStyle;rounded=0;orthogonalLoop=1;jettySize=auto;html=1;exitX=0.498;exitY=0.881;exitDx=0;exitDy=0;exitPerimeter=0;entryX=0.5;entryY=1;entryDx=0;entryDy=0;entryPerimeter=0;" edge="1" parent="1" source="9GBmTUvKg4JU0pZOdKfp-84" target="9GBmTUvKg4JU0pZOdKfp-83">
          <mxGeometry relative="1" as="geometry" />
        </mxCell>
        <mxCell id="9GBmTUvKg4JU0pZOdKfp-88" style="edgeStyle=orthogonalEdgeStyle;rounded=0;orthogonalLoop=1;jettySize=auto;html=1;exitX=0.5;exitY=0;exitDx=0;exitDy=0;exitPerimeter=0;entryX=0.5;entryY=1;entryDx=0;entryDy=0;entryPerimeter=0;" edge="1" parent="1" source="9GBmTUvKg4JU0pZOdKfp-83" target="9GBmTUvKg4JU0pZOdKfp-31">
          <mxGeometry relative="1" as="geometry" />
        </mxCell>
        <mxCell id="9GBmTUvKg4JU0pZOdKfp-83" value="int j:0, 1, n" style="strokeWidth=2;html=1;shape=mxgraph.flowchart.loop_limit;whiteSpace=wrap;rotation=-180;" vertex="1" parent="1">
          <mxGeometry x="467.5" y="1610" width="95" height="40" as="geometry" />
        </mxCell>
        <mxCell id="9GBmTUvKg4JU0pZOdKfp-84" value="cout &lt;&lt; &quot; &quot; &lt;&lt; array[j];" style="shape=document;whiteSpace=wrap;html=1;boundedLbl=1;" vertex="1" parent="1">
          <mxGeometry x="450" y="1550" width="130" height="40" as="geometry" />
        </mxCell>
        <mxCell id="9GBmTUvKg4JU0pZOdKfp-89" value="void insertion(int* array, int n)" style="ellipse;whiteSpace=wrap;html=1;" vertex="1" parent="1">
          <mxGeometry x="420" y="1790" width="190" height="50" as="geometry" />
        </mxCell>
      </root>
    </mxGraphModel>
  </diagram>
</mxfile>
